<svg width="32" height="31" viewBox="0 0 32 31" fill="none" xmlns="http://www.w3.org/2000/svg">
<path d="M31.9759 0.347034C31.9127 0.154409 31.7368 0.021222 31.5343 0.0127845C30.5147 -0.029653 27.7279 -0.0223405 23.8822 0.961034C20.3025 1.87647 16.9433 3.38116 14.1675 5.31253C13.9472 5.46585 13.893 5.76866 14.0462 5.98897C14.1994 6.20928 14.5022 6.2636 14.7226 6.11035C17.4039 4.24453 20.6546 2.7896 24.1229 1.90266C25.4189 1.57128 26.7587 1.31972 28.029 1.1621C27.5082 1.38703 26.95 1.65022 26.369 1.95872C22.4401 4.04441 20.245 6.71135 19.032 8.85503C18.8726 8.13978 18.8289 7.31772 18.8286 6.95135C18.8285 6.68303 18.611 6.4656 18.3427 6.4656C18.0743 6.4656 17.8567 6.68316 17.8567 6.95153C17.8567 7.1666 17.8739 8.95885 18.4167 10.0636C17.6686 11.661 16.9689 13.2579 16.2918 14.8045C16.0042 15.4613 15.7211 16.1078 15.4404 16.7407C15.0026 15.9163 14.4256 14.4237 14.5839 12.4715C14.6055 12.204 14.4063 11.9695 14.1387 11.9478C13.872 11.9266 13.6368 12.1254 13.6151 12.393C13.3877 15.1977 14.503 17.156 14.9555 17.8238C14.1074 19.6981 13.271 21.4242 12.3902 22.8975C11.9367 21.8708 11.2263 19.9145 11.2263 17.7362C11.2263 17.4678 11.0087 17.2503 10.7404 17.2503C10.472 17.2503 10.2544 17.4678 10.2544 17.7362C10.2544 20.6257 11.372 23.0827 11.7742 23.8733C10.8119 25.3111 9.78436 26.4354 8.62367 27.1196C5.08779 23.2795 4.74292 16.0746 10.9201 9.40322C11.6223 8.64485 12.3929 7.92091 13.2107 7.2516C13.4184 7.0816 13.4489 6.77547 13.2789 6.56778C13.1089 6.3601 12.8027 6.3296 12.5951 6.49953C11.7429 7.19716 10.9394 7.95197 10.207 8.74291C3.69104 15.7802 4.05817 23.4504 7.79436 27.6523C4.54073 29.8419 0.514981 29.9787 0.472856 29.9799C0.204731 29.9871 -0.00683118 30.2102 0.000168815 30.4784C0.00710632 30.7423 0.223231 30.9516 0.485731 30.9516C0.490044 30.9516 0.494419 30.9515 0.498731 30.9515C0.685231 30.9465 4.97954 30.8058 8.49723 28.349C9.56311 29.2187 11.235 29.7478 13.2621 29.7478C15.557 29.7478 18.3072 29.0695 21.148 27.4396C23.7798 25.9296 25.6666 23.6197 26.7561 20.574C27.6891 17.9659 28.0037 14.8279 27.666 11.4992C27.0639 5.56516 29.3056 2.88747 31.8177 0.877847C31.9759 0.75116 32.0389 0.539659 31.9759 0.347034ZM27.6832 4.32216C26.7273 6.3231 26.4054 8.70285 26.699 11.5972C27.0222 14.7829 26.7255 17.7738 25.8409 20.2465C24.8315 23.0685 23.0898 25.2048 20.6643 26.5966C17.6035 28.3528 15.0344 28.7507 13.418 28.7753C11.7655 28.8012 10.3365 28.4484 9.37767 27.7953C10.1757 27.2776 10.9084 26.5833 11.5969 25.7452C11.6348 25.7455 11.6757 25.7457 11.7214 25.7457C12.1986 25.7457 13.0877 25.7252 14.1367 25.6026C16.2354 25.3573 17.8898 24.8395 19.0541 24.0633C19.2774 23.9145 19.3377 23.6127 19.1889 23.3895C19.04 23.1662 18.7383 23.1059 18.515 23.2547C16.7214 24.4505 13.8324 24.7102 12.3412 24.7614C13.2865 23.4132 14.1572 21.7943 15.0159 20.0013C15.8609 19.9992 18.104 19.8164 20.2367 18.1162C20.4465 17.9489 20.481 17.6432 20.3137 17.4333C20.1464 17.2235 19.8407 17.189 19.6309 17.3563C18.0646 18.605 16.407 18.9277 15.4841 19.005C16.0444 17.7925 16.6045 16.5132 17.182 15.1943C17.48 14.5135 17.7827 13.8227 18.0915 13.127C18.1248 13.1278 18.16 13.1283 18.197 13.1283C18.9295 13.1283 20.3882 12.9497 21.9912 11.762C22.2068 11.6022 22.2521 11.2978 22.0923 11.0822C21.9325 10.8666 21.6282 10.8213 21.4125 10.9811C20.4235 11.7138 19.5133 11.9891 18.9238 12.091C18.7809 12.1158 18.6501 12.1315 18.5319 12.1415C18.8151 11.513 19.1042 10.8823 19.401 10.2527C21.2114 6.4111 24.423 4.09641 26.7985 2.8311C27.8283 2.2826 28.7948 1.87797 29.5879 1.58885C28.8911 2.3231 28.2111 3.21716 27.6832 4.32216Z" fill="#00B307"/>
</svg>
